<svg id="Capa_1" data-name="Capa 1" xmlns="http://www.w3.org/2000/svg" viewBox="0 0 188.64 69.93"><defs><style>.cls-1{fill:#1d1d1b;stroke-miterlimit:10;}.cls-1,.cls-2{stroke:#1d1d1b;}.cls-2{stroke-linecap:round;stroke-linejoin:round;}</style></defs><line class="cls-1" x1="13.11" y1="45.36" x2="175.97" y2="45.36"/><polygon class="cls-1" points="188.08 45.36 0.99 45.36 0.56 41.84 187.65 41.84 188.08 45.36"/><rect class="cls-1" x="120.25" y="16.5" width="21.43" height="25.34"/><rect class="cls-1" x="110.98" y="18.91" width="9.27" height="3.32"/><rect class="cls-1" x="141.68" y="18.91" width="9.27" height="3.32"/><rect class="cls-1" x="127.54" y="0.5" width="6.86" height="16"/><polyline class="cls-1" points="127.64 4.3 118.37 4.3 118.37 7.63 127.64 7.63"/><polyline class="cls-1" points="134.39 4.3 143.66 4.3 143.66 7.63 134.39 7.63"/><polyline class="cls-1" points="127.64 10.14 118.37 10.14 118.37 13.46 127.64 13.46"/><polyline class="cls-1" points="133.97 10.14 143.24 10.14 143.24 13.46 133.97 13.46"/><polygon class="cls-2" points="13.11 45.36 38.18 69.43 150.89 69.43 175.97 45.36 13.11 45.36"/><line class="cls-1" x1="13.11" y1="45.36" x2="175.97" y2="45.36"/></svg>